<svg width="1440" height="800" viewBox="0 0 1440 800" fill="none" xmlns="http://www.w3.org/2000/svg">
<rect width="1440" height="800" fill="#007AFF"/>
<mask id="mask0_9_180" style="mask-type:luminance" maskUnits="userSpaceOnUse" x="0" y="0" width="1440" height="800">
<rect width="1440" height="800" fill="white"/>
</mask>
<g mask="url(#mask0_9_180)">
<g opacity="0.0636858">
<mask id="mask1_9_180" style="mask-type:luminance" maskUnits="userSpaceOnUse" x="226" y="-167" width="1135" height="1585">
<path fill-rule="evenodd" clip-rule="evenodd" d="M226.095 -166.294H1360.12V1417H226.095V-166.294Z" fill="white"/>
</mask>
<g mask="url(#mask1_9_180)">
<path fill-rule="evenodd" clip-rule="evenodd" d="M1358.05 492.112C1358.41 480.82 1354.65 470.219 1348.02 463.763L709.921 -157.536C704.78 -162.546 698.545 -164.459 692.369 -162.926C686.197 -161.387 680.819 -156.589 677.236 -149.405L232.36 741.309C229.808 746.417 228.356 752.398 228.162 758.594C227.81 769.888 231.562 780.483 238.193 786.948L876.289 1408.25C881.436 1413.26 887.665 1415.17 893.845 1413.63C900.016 1412.09 905.394 1407.3 908.979 1400.11L1353.85 509.403C1356.41 504.292 1357.86 498.309 1358.05 492.112ZM226.12 758.47C226.332 751.73 227.912 745.234 230.687 739.678L675.558 -151.037C679.456 -158.843 685.3 -164.061 692.012 -165.733C698.724 -167.401 705.499 -165.321 711.091 -159.877L1349.19 461.425C1356.4 468.447 1360.48 479.964 1360.09 492.24C1359.88 498.978 1358.3 505.475 1355.53 511.035L910.653 1401.74C906.756 1409.55 900.915 1414.77 894.203 1416.44C887.492 1418.11 880.716 1416.03 875.121 1410.58L237.027 789.281C229.816 782.264 225.737 770.744 226.12 758.47Z" fill="white"/>
</g>
<path fill-rule="evenodd" clip-rule="evenodd" d="M1328.41 483.128C1328.75 472.295 1325.18 462.062 1318.88 455.757L702.435 -160.861C697.473 -165.83 691.421 -167.8 685.395 -166.413C679.369 -165.023 674.094 -160.441 670.536 -153.512L229.013 706.971C226.422 712.024 224.95 717.958 224.757 724.135C224.419 734.971 227.981 745.204 234.288 751.503L850.731 1368.13C860.983 1378.37 875.29 1375.08 882.627 1360.78L1324.15 500.293C1326.74 495.243 1328.22 489.304 1328.41 483.128ZM222.719 724.006C222.927 717.28 224.531 710.813 227.355 705.31L668.879 -155.17C672.752 -162.72 678.5 -167.709 685.062 -169.223C691.625 -170.735 698.218 -168.588 703.626 -163.18L1320.07 453.441C1326.94 460.31 1330.82 471.452 1330.45 483.252C1330.24 489.983 1328.64 496.453 1325.81 501.954L884.287 1362.43C876.294 1378.02 860.703 1381.61 849.542 1370.45L233.099 753.824C226.232 746.957 222.349 735.811 222.719 724.006Z" fill="white"/>
<path fill-rule="evenodd" clip-rule="evenodd" d="M1298.77 474.141C1299.09 463.768 1295.72 453.9 1289.74 447.748L694.952 -164.187C685.075 -174.348 671.121 -171.399 663.843 -157.614L225.67 672.638C223.037 677.622 221.543 683.519 221.35 689.682C221.026 700.054 224.403 709.919 230.383 716.068L825.168 1328.01C829.957 1332.93 835.825 1334.96 841.702 1333.72C847.58 1332.48 852.758 1328.11 856.282 1321.44L1294.46 491.18C1297.09 486.197 1298.58 480.304 1298.77 474.141ZM219.31 689.551C219.521 682.822 221.149 676.39 224.023 670.95L662.198 -159.304C670.143 -174.357 685.379 -177.576 696.161 -166.483L1290.95 445.453C1297.48 452.173 1301.16 462.946 1300.81 474.268C1300.6 480.997 1298.97 487.43 1296.1 492.875L857.925 1323.13C854.074 1330.42 848.425 1335.18 842.007 1336.53C835.593 1337.89 829.183 1335.68 823.961 1330.31L229.171 718.366C222.644 711.649 218.956 700.88 219.31 689.551Z" fill="white"/>
<path fill-rule="evenodd" clip-rule="evenodd" d="M1269.14 465.153C1269.45 455.235 1266.25 445.738 1260.6 439.742L687.464 -167.513C682.857 -172.393 677.169 -174.476 671.441 -173.381C665.718 -172.288 660.639 -168.144 657.147 -161.715L222.317 638.309C219.643 643.235 218.127 649.08 217.935 655.227C217.625 665.143 220.817 674.64 226.474 680.636L799.614 1287.89C809.115 1297.95 822.715 1295.36 829.929 1282.1L1264.76 482.073C1267.43 477.151 1268.95 471.301 1269.14 465.153ZM215.897 655.098C216.105 648.371 217.765 641.966 220.692 636.584L655.518 -163.439C659.343 -170.474 664.9 -175.007 671.165 -176.208C677.43 -177.404 683.656 -175.123 688.698 -169.785L1261.83 437.473C1268.02 444.032 1271.52 454.426 1271.18 465.279C1270.97 472.007 1269.31 478.412 1266.38 483.798L831.555 1283.82C823.661 1298.33 808.778 1301.19 798.377 1290.16L225.243 682.903C219.051 676.343 215.557 665.956 215.897 655.098Z" fill="white"/>
<path fill-rule="evenodd" clip-rule="evenodd" d="M1239.51 456.169C1239.8 446.7 1236.79 437.566 1231.45 431.733L679.976 -170.842C675.551 -175.675 670.042 -177.816 664.466 -176.866C658.886 -175.918 653.911 -171.995 650.449 -165.818L218.968 603.975C216.247 608.824 214.71 614.627 214.518 620.764C214.222 630.232 217.234 639.366 222.571 645.2L774.051 1247.78C778.479 1252.61 783.983 1254.75 789.562 1253.8C795.14 1252.85 800.118 1248.93 803.582 1242.75L1235.06 472.959C1237.78 468.111 1239.32 462.302 1239.51 456.169ZM212.478 620.637C212.691 613.903 214.376 607.539 217.36 602.21L648.841 -167.575C652.639 -174.35 658.102 -178.655 664.217 -179.695C670.336 -180.737 676.378 -178.39 681.235 -173.084L1232.71 429.49C1238.57 435.887 1241.87 445.908 1241.55 456.293C1241.34 463.025 1239.65 469.396 1236.67 474.72L805.19 1244.51C801.391 1251.29 795.928 1255.59 789.81 1256.63C783.692 1257.67 777.648 1255.33 772.797 1250.02L221.313 647.446C215.457 641.046 212.155 631.024 212.478 620.637Z" fill="white"/>
<path fill-rule="evenodd" clip-rule="evenodd" d="M1209.89 447.183C1210.17 438.163 1207.34 429.397 1202.32 423.729L672.488 -174.167C663.724 -184.057 650.832 -182.152 643.752 -169.919L215.616 569.647C212.854 574.417 211.287 580.182 211.096 586.306C210.813 595.329 213.646 604.093 218.668 609.762L748.495 1207.65C752.742 1212.45 758.069 1214.64 763.493 1213.84C768.924 1213.04 773.803 1209.33 777.231 1203.41L1205.37 463.848C1208.13 459.071 1209.7 453.306 1209.89 447.183ZM209.056 586.183C209.265 579.445 210.987 573.108 214.03 567.852L642.162 -171.711C649.949 -185.166 664.129 -187.262 673.77 -176.386L1203.6 421.513C1209.12 427.741 1212.23 437.387 1211.93 447.307C1211.72 454.042 1210 460.381 1206.95 465.642L778.819 1205.2C775.048 1211.72 769.678 1215.79 763.711 1216.68C757.74 1217.56 751.881 1215.15 747.212 1209.87L217.385 611.979C211.859 605.747 208.746 596.102 209.056 586.183Z" fill="white"/>
<path fill-rule="evenodd" clip-rule="evenodd" d="M1180.27 438.195C1180.54 429.495 1177.95 421.3 1173.17 415.718L665 -177.498C660.931 -182.241 655.788 -184.495 650.508 -183.838C645.228 -183.181 640.451 -179.693 637.053 -174.017L212.266 535.313C209.447 540.02 207.857 545.733 207.667 551.845C207.396 560.549 209.987 568.747 214.766 574.327L722.939 1167.54C731.334 1177.34 743.868 1175.78 750.884 1164.06L1175.67 454.734C1178.49 450.03 1180.08 444.311 1180.27 438.195ZM205.63 551.718C205.838 544.981 207.592 538.673 210.699 533.481L635.485 -175.847C639.235 -182.108 644.503 -185.954 650.326 -186.676C656.149 -187.402 661.825 -184.916 666.309 -179.683L1174.48 413.528C1179.75 419.686 1182.61 428.719 1182.31 438.323C1182.1 445.069 1180.34 451.372 1177.23 456.559L752.451 1165.89C744.711 1178.82 730.886 1180.53 721.627 1169.73L213.456 576.52C208.181 570.361 205.328 561.323 205.63 551.718Z" fill="white"/>
<path fill-rule="evenodd" clip-rule="evenodd" d="M1150.66 429.212C1150.91 420.949 1148.5 413.115 1144.03 407.703L657.511 -180.823C653.625 -185.529 648.659 -187.839 643.527 -187.325C638.397 -186.813 633.719 -183.545 630.35 -178.119L208.918 500.98C206.043 505.611 204.425 511.282 204.234 517.39C203.976 525.65 206.393 533.489 210.862 538.899L697.379 1127.43C701.269 1132.13 706.234 1134.44 711.365 1133.93C716.492 1133.42 721.17 1130.15 724.538 1124.72L1145.97 445.62C1148.85 440.994 1150.47 435.318 1150.66 429.212ZM202.193 517.266C202.404 510.51 204.198 504.234 207.374 499.117L628.807 -179.985C632.532 -185.988 637.708 -189.604 643.381 -190.168C649.057 -190.735 654.55 -188.181 658.847 -182.98L1145.36 405.548C1150.31 411.534 1152.98 420.203 1152.7 429.337C1152.48 436.089 1150.7 442.366 1147.52 447.492L726.081 1126.59C722.359 1132.59 717.182 1136.21 711.51 1136.77C705.835 1137.33 700.342 1134.79 696.046 1129.58L209.525 541.051C204.579 535.068 201.91 526.401 202.193 517.266Z" fill="white"/>
<path fill-rule="evenodd" clip-rule="evenodd" d="M1121.05 420.226C1121.3 412.406 1119.05 404.922 1114.88 399.69L650.018 -184.16C646.313 -188.817 641.528 -191.178 636.547 -190.811C631.567 -190.445 626.985 -187.394 623.652 -182.217L205.564 466.653C202.674 471.133 200.98 476.919 200.792 482.932C200.55 490.75 202.798 498.236 206.961 503.463L671.825 1087.32C675.53 1091.97 680.315 1094.34 685.3 1093.97C690.276 1093.6 694.857 1090.55 698.194 1085.38L1116.28 436.507C1119.17 432.025 1120.87 426.239 1121.05 420.226ZM198.752 482.81C198.962 476.135 200.839 469.716 204.046 464.749L622.133 -184.123C625.831 -189.863 630.914 -193.252 636.441 -193.659C641.967 -194.066 647.274 -191.442 651.387 -186.276L1116.25 397.575C1120.87 403.374 1123.36 411.677 1123.09 420.351C1122.88 427.024 1121 433.435 1117.8 438.414L699.711 1087.29C696.012 1093.02 690.931 1096.41 685.405 1096.82C679.882 1097.22 674.572 1094.61 670.46 1089.43L205.594 505.579C200.975 499.784 198.483 491.48 198.752 482.81Z" fill="white"/>
<path fill-rule="evenodd" clip-rule="evenodd" d="M1091.46 411.24C1091.69 403.854 1089.6 396.725 1085.74 391.675L642.53 -187.491C639.001 -192.104 634.394 -194.523 629.565 -194.299C624.734 -194.076 620.252 -191.241 616.947 -186.313L202.21 432.326C199.26 436.725 197.532 442.461 197.344 448.477C197.114 455.863 199.197 462.991 203.055 468.039L646.268 1047.2C653.552 1056.73 665.03 1056.2 671.849 1046.03L1086.59 427.391C1089.54 422.99 1091.27 417.255 1091.46 411.24ZM195.303 448.353C195.514 441.658 197.437 435.274 200.718 430.378L615.458 -188.26C619.133 -193.744 624.117 -196.9 629.494 -197.147C634.872 -197.394 639.996 -194.706 643.925 -189.571L1087.14 389.598C1091.43 395.213 1093.75 403.145 1093.5 411.364C1093.28 418.057 1091.36 424.439 1088.08 429.341L673.338 1047.98C665.75 1059.3 652.978 1059.88 644.873 1049.29L201.662 470.118C197.365 464.504 195.049 456.566 195.303 448.353Z" fill="white"/>
<path fill-rule="evenodd" clip-rule="evenodd" d="M1061.86 402.253C1062.08 395.301 1060.16 388.522 1056.6 383.663L635.04 -190.828C628.119 -200.255 616.995 -200.068 610.244 -190.41L198.853 397.999C195.838 402.305 194.072 408.001 193.886 414.013C193.667 420.973 195.589 427.747 199.156 432.608L620.711 1007.1C627.633 1016.52 638.753 1016.33 645.503 1006.68L1056.89 418.275C1059.91 413.962 1061.67 408.27 1061.86 402.253ZM191.848 413.885C192.056 407.173 194.028 400.82 197.393 396.004L608.786 -192.404C616.324 -203.184 628.739 -203.392 636.463 -192.865L1058.02 381.622C1062 387.047 1064.15 394.614 1063.9 402.38C1063.7 409.097 1061.73 415.453 1058.36 420.266L646.964 1008.67C639.428 1019.45 627.011 1019.66 619.285 1009.14L197.733 434.644C193.751 429.22 191.606 421.654 191.848 413.885Z" fill="white"/>
<path fill-rule="evenodd" clip-rule="evenodd" d="M1032.28 393.268C1032.49 386.735 1030.73 380.315 1027.45 375.649L627.548 -194.162C620.995 -203.496 610.227 -203.651 603.542 -194.509L195.499 363.666C192.415 367.888 190.609 373.529 190.419 379.557C190.217 386.09 191.983 392.51 195.257 397.18L595.154 966.994C601.709 976.328 612.475 976.479 619.163 967.328L1027.21 409.159C1030.29 404.938 1032.1 399.293 1032.28 393.268ZM188.381 379.431C188.592 372.684 190.616 366.362 194.071 361.631L602.112 -196.546C609.603 -206.788 621.665 -206.613 629.005 -196.158L1028.91 373.651C1032.58 378.88 1034.55 386.075 1034.33 393.392C1034.11 400.145 1032.09 406.464 1028.63 411.195L620.594 969.373C613.109 979.614 601.04 979.442 593.701 968.987L193.798 399.18C190.129 393.947 188.153 386.747 188.381 379.431Z" fill="white"/>
<path fill-rule="evenodd" clip-rule="evenodd" d="M1002.71 384.284C1002.91 378.078 1001.34 372.161 998.3 367.622L620.052 -197.5C617.06 -201.975 612.993 -204.557 608.61 -204.765C604.224 -204.973 600.042 -202.783 596.837 -198.603L192.144 329.341C188.981 333.467 187.137 339.061 186.948 345.098C186.754 351.303 188.318 357.22 191.355 361.76L569.605 926.882C575.79 936.122 586.203 936.611 592.823 927.983L997.517 400.039C1000.68 395.915 1002.52 390.319 1002.71 384.284ZM184.907 344.969C185.119 338.179 187.192 331.899 190.744 327.263L595.442 -200.686C599.047 -205.389 603.746 -207.848 608.679 -207.612C613.609 -207.379 618.177 -204.478 621.548 -199.446L999.793 365.678C1003.21 370.78 1004.97 377.433 1004.75 384.409C1004.54 391.197 1002.47 397.489 998.909 402.121L594.215 930.07C586.779 939.769 575.066 939.219 568.112 928.834L189.864 363.705C186.451 358.599 184.687 351.952 184.907 344.969Z" fill="white"/>
<path fill-rule="evenodd" clip-rule="evenodd" d="M973.15 375.3C973.333 369.507 971.913 363.938 969.156 359.605L612.561 -200.839C606.741 -209.984 596.678 -210.819 590.128 -202.7L188.781 295.02C185.538 299.039 183.649 304.583 183.461 310.637C183.281 316.425 184.7 322.003 187.457 326.335L544.052 886.779C549.871 895.927 559.93 896.762 566.486 888.636L967.829 390.92C971.074 386.9 972.964 381.351 973.15 375.3ZM181.419 310.512C181.634 303.688 183.767 297.425 187.428 292.888L588.772 -204.831C596.163 -213.994 607.519 -213.053 614.087 -202.734L970.683 357.713C973.793 362.6 975.397 368.89 975.191 375.424C974.978 382.255 972.844 388.513 969.188 393.052L567.84 890.777C560.446 899.932 549.09 898.995 542.521 888.672L185.929 328.233C182.818 323.34 181.216 317.048 181.419 310.512Z" fill="white"/>
<path fill-rule="evenodd" clip-rule="evenodd" d="M943.603 366.317C943.771 360.937 942.493 355.701 940.009 351.578L605.068 -204.183C602.428 -208.567 598.72 -211.254 594.633 -211.744C590.542 -212.237 586.56 -210.479 583.42 -206.79L185.421 260.699C182.141 264.551 180.154 270.192 179.966 276.178C179.798 281.559 181.072 286.791 183.558 290.918L518.498 846.681C523.951 855.728 533.665 856.897 540.147 849.284L938.146 381.802C941.426 377.948 943.416 372.302 943.603 366.317ZM177.924 276.054C178.136 269.269 180.39 262.879 184.104 258.517L582.104 -208.972C585.665 -213.149 590.173 -215.144 594.806 -214.585C599.439 -214.027 603.638 -210.983 606.63 -206.018L941.569 349.745C944.386 354.418 945.83 360.347 945.641 366.439C945.43 373.222 943.176 379.616 939.459 383.984L541.459 851.467C534.116 860.094 523.113 858.767 516.936 848.516L181.997 292.749C179.18 288.078 177.734 282.15 177.924 276.054Z" fill="white"/>
<path fill-rule="evenodd" clip-rule="evenodd" d="M914.065 357.333C914.22 352.352 913.082 347.46 910.862 343.552L597.574 -207.526C595.107 -211.864 591.579 -214.604 587.637 -215.237C583.696 -215.872 579.817 -214.325 576.712 -210.886L182.058 226.374C178.686 230.111 176.644 235.702 176.455 241.72C176.302 246.694 177.439 251.587 179.659 255.5L492.943 806.581C498.035 815.538 507.394 817.044 513.811 809.936L908.46 372.683C911.835 368.945 913.879 363.348 914.065 357.333ZM174.415 241.591C174.626 234.752 176.951 228.393 180.792 224.139L575.44 -213.119C578.974 -217.033 583.388 -218.792 587.871 -218.07C592.353 -217.348 596.367 -214.233 599.174 -209.297L912.459 341.782C914.985 346.225 916.281 351.795 916.104 357.459C915.89 364.299 913.571 370.662 909.73 374.912L515.075 812.172C507.789 820.252 497.138 818.539 491.346 808.353L178.059 257.276C175.535 252.823 174.239 247.254 174.415 241.591Z" fill="white"/>
<path fill-rule="evenodd" clip-rule="evenodd" d="M884.542 348.354C884.685 343.767 883.68 339.212 881.712 335.521L590.079 -210.876C585.35 -219.734 576.342 -221.575 569.994 -214.977L178.698 192.052C175.221 195.664 173.119 201.206 172.931 207.252C172.79 211.838 173.796 216.391 175.761 220.087L467.397 766.488C472.123 775.345 481.132 777.183 487.476 770.585L878.78 363.559C882.255 359.946 884.352 354.405 884.542 348.354ZM170.89 207.129C171.106 200.217 173.509 193.891 177.477 189.759L568.775 -217.262C576.023 -224.801 586.315 -222.698 591.717 -212.578L883.348 333.821C885.595 338.033 886.748 343.238 886.582 348.479C886.367 355.389 883.967 361.718 879.998 365.849L488.698 772.87C481.449 780.407 471.159 778.302 465.758 768.189L174.124 221.789C171.877 217.573 170.728 212.367 170.89 207.129Z" fill="white"/>
<path fill-rule="evenodd" clip-rule="evenodd" d="M855.035 339.377C855.166 335.113 854.314 331.004 852.565 327.491L582.586 -214.227C578.219 -222.991 569.56 -225.161 563.281 -219.069L175.328 157.729C171.747 161.208 169.583 166.695 169.393 172.788C169.262 177.051 170.117 181.158 171.866 184.668L441.842 726.393C446.209 735.161 454.867 737.329 461.147 731.232L849.102 354.438C852.683 350.961 854.844 345.467 855.035 339.377ZM167.354 172.662C167.57 165.676 170.054 159.377 174.164 155.387L562.113 -221.407C569.316 -228.398 579.25 -225.908 584.259 -215.856L854.238 325.864C856.245 329.893 857.227 334.606 857.072 339.499C856.855 346.488 854.375 352.786 850.27 356.779L462.311 733.576C455.111 740.567 445.175 738.076 440.167 728.024L170.189 186.302C168.181 182.274 167.201 177.56 167.354 172.662Z" fill="white"/>
<path fill-rule="evenodd" clip-rule="evenodd" d="M825.545 330.399C825.666 326.515 824.932 322.733 823.414 319.456L575.089 -217.584C571.081 -226.246 562.772 -228.749 556.564 -223.158L171.958 123.403C168.315 126.692 166.025 132.268 165.838 138.325C165.717 142.206 166.455 145.986 167.971 149.263L416.293 686.31C420.3 694.969 428.609 697.469 434.818 691.876L819.425 345.313C823.066 342.03 825.353 336.455 825.545 330.399ZM163.798 138.199C164.016 131.217 166.653 124.793 170.852 121.012L555.456 -225.553C562.608 -231.998 572.185 -229.113 576.804 -219.128L825.127 317.91C826.875 321.686 827.723 326.048 827.584 330.523C827.367 337.501 824.73 343.929 820.529 347.707L435.924 694.272C428.773 700.715 419.195 697.835 414.578 687.852L166.251 150.815C164.509 147.034 163.657 142.675 163.798 138.199Z" fill="white"/>
<path fill-rule="evenodd" clip-rule="evenodd" d="M796.069 321.418C796.179 317.912 795.553 314.451 794.264 311.417L567.596 -220.942C563.944 -229.51 555.981 -232.341 549.844 -227.25L168.589 89.0841C164.82 92.2098 162.453 97.7342 162.263 103.856C162.153 107.367 162.779 110.825 164.071 113.863L390.74 646.221C394.391 654.79 402.352 657.621 408.487 652.525L789.747 336.192C793.516 333.065 795.878 327.543 796.069 321.418ZM160.225 103.731C160.446 96.6432 163.181 90.2508 167.543 86.635L548.799 -229.7C555.907 -235.595 565.125 -232.317 569.347 -222.397L796.016 309.957C797.514 313.473 798.236 317.476 798.11 321.548C797.889 328.634 795.152 335.024 790.791 338.646L409.532 654.98C402.428 660.871 393.209 657.597 388.986 647.678L162.315 115.319C160.82 111.807 160.098 107.795 160.225 103.731Z" fill="white"/>
<path fill-rule="evenodd" clip-rule="evenodd" d="M766.618 312.449C766.716 309.3 766.198 306.159 765.112 303.373L560.097 -224.303C556.805 -232.777 549.191 -235.934 543.119 -231.339L165.211 54.7597C161.309 57.7166 158.864 63.1818 158.67 69.384C158.571 72.5348 159.09 75.6743 160.174 78.4624L365.191 606.139C368.484 614.611 376.098 617.769 382.169 613.174L760.077 327.07C763.98 324.115 766.426 318.653 766.618 312.449ZM156.63 69.2617C156.851 62.1574 159.766 55.644 164.239 52.2588L542.147 -233.845C549.205 -239.187 558.064 -235.516 561.893 -225.66L766.908 302.014C768.168 305.26 768.769 308.905 768.659 312.574C768.435 319.676 765.519 326.191 761.052 329.579L383.14 615.682C376.081 621.025 367.225 617.354 363.394 607.494L158.381 79.8217C157.12 76.575 156.515 72.9253 156.63 69.2617Z" fill="white"/>
<mask id="mask2_9_180" style="mask-type:luminance" maskUnits="userSpaceOnUse" x="153" y="-240" width="587" height="819">
<path fill-rule="evenodd" clip-rule="evenodd" d="M153 -240H739.245V578.392H153V-240Z" fill="white"/>
</mask>
<g mask="url(#mask2_9_180)">
<path fill-rule="evenodd" clip-rule="evenodd" d="M737.192 303.476C737.278 300.677 736.854 297.86 735.962 295.325L552.601 -227.67C549.668 -236.046 542.397 -239.53 536.397 -235.432L161.834 20.4425C157.844 23.1676 155.248 28.7121 155.055 34.9106C154.968 37.7125 155.39 40.532 156.28 43.068L339.64 566.063C342.579 574.437 349.845 577.92 355.847 573.82L730.409 317.952C734.396 315.224 736.997 309.678 737.192 303.476ZM153.013 34.786C153.239 27.5419 156.277 21.0625 160.933 17.8827L535.496 -237.993C542.507 -242.779 551.005 -238.712 554.438 -228.923L737.801 294.072C738.838 297.034 739.334 300.328 739.232 303.602C739.005 310.848 735.97 317.328 731.307 320.509L356.745 576.38C349.732 581.173 341.238 577.105 337.806 567.315L154.442 44.3179C153.404 41.3611 152.911 38.0616 153.013 34.786Z" fill="white"/>
</g>
</g>
</g>
</svg>
